<svg xmlns="http://www.w3.org/2000/svg" viewBox="0 0 24 24" fill="none" role="img" aria-labelledby="title desc">
  <title id="title">Tailoring</title><desc id="desc">A compact sewing machine with an LNDRY careline stitched into the fabric.</desc>
  <path d="M5 6h8.5v4.5H17a2 2 0 0 1 2 2v3.75H5V6Z" fill="#EAE8FF"/>
  <g stroke="#6C63E8" stroke-width="1.75" stroke-linecap="round" stroke-linejoin="round">
    <path d="M5 6h8.5v4.5H17a2 2 0 0 1 2 2v3.75H5V6Z"/>
    <path d="M3.5 16.25h17v2.5h-17zM13.5 8.5h2.75M15 10.5v3M11.5 13.5H15"/>
    <path d="M6.75 10.5v2.25c0 .83.67 1.5 1.5 1.5H9.5"/>
    <path d="M6.75 9.35v.25M6.75 14.85v.25M6.75 15.95v.25"/>
  </g>
  <circle cx="9.5" cy="14.25" r=".9" fill="#0FB5A6"/>
</svg>
